<svg width="64" height="64" viewBox="0 0 64 64" fill="none" xmlns="http://www.w3.org/2000/svg">
  <circle cx="32" cy="32" r="32" fill="#1E1E2F"/>
  
  <g transform="scale(1.6) translate(-12 -12)">
    <path d="M32 20C29.7909 20 28 21.7909 28 24C28 26.2091 29.7909 28 32 28C34.2091 28 36 26.2091 36 24C36 21.7909 34.2091 20 32 20ZM32 18C35.3137 18 38 20.6863 38 24C38 27.3137 35.3137 30 32 30C28.6863 30 26 27.3137 26 24C26 20.6863 28.6863 18 32 18Z" fill="#61DAFB"/>
    
    <path d="M22 42L28 36L22 30" stroke="#61DAFB" stroke-width="2" stroke-linecap="round" stroke-linejoin="round"/>
    <line x1="28" y1="36" x2="42" y2="36" stroke="#61DAFB" stroke-width="2" stroke-linecap="round"/>
  </g>
</svg>
